<svg id="Layer_1" data-name="Layer 1" xmlns="http://www.w3.org/2000/svg" viewBox="0 0 96 96"><defs><style>.cls-1{fill:#464646;}</style></defs><title>no_image</title><path class="cls-1" d="M3.44,41.9V26.57H5.6l4.92,7.76a44.18,44.18,0,0,1,2.75,5l.05,0c-.19-2-.23-3.92-.23-6.31V26.57H15V41.9H13L8.08,34.12A47.32,47.32,0,0,1,5.22,29l-.07,0c.11,1.93.16,3.77.16,6.32V41.9Z"/><path class="cls-1" d="M28.31,36.31c0,4.07-2.82,5.84-5.48,5.84-3,0-5.28-2.18-5.28-5.66,0-3.69,2.41-5.85,5.46-5.85S28.31,32.94,28.31,36.31Zm-8.74.11c0,2.41,1.39,4.23,3.35,4.23s3.34-1.8,3.34-4.28c0-1.86-.93-4.23-3.3-4.23S19.57,34.33,19.57,36.42Z"/><path class="cls-1" d="M37.89,27.8a1.24,1.24,0,0,1-2.48,0,1.22,1.22,0,0,1,1.25-1.26A1.2,1.2,0,0,1,37.89,27.8ZM35.66,41.9v-11h2v11Z"/><path class="cls-1" d="M41,33.87c0-1.14,0-2.07-.09-3h1.75l.09,1.78h.07a3.8,3.8,0,0,1,3.46-2,3.26,3.26,0,0,1,3.12,2.21h0a4.65,4.65,0,0,1,1.23-1.44,3.77,3.77,0,0,1,2.44-.77c1.45,0,3.61,1,3.61,4.78V41.9h-2V35.67c0-2.12-.78-3.39-2.39-3.39A2.59,2.59,0,0,0,50,34.1a3.33,3.33,0,0,0-.16,1v6.8H47.88V35.3c0-1.75-.78-3-2.3-3a2.74,2.74,0,0,0-2.48,2,2.65,2.65,0,0,0-.16,1V41.9H41v-8Z"/><path class="cls-1" d="M66.05,41.9l-.16-1.39h-.06a4.1,4.1,0,0,1-3.37,1.64A3.14,3.14,0,0,1,59.09,39c0-2.66,2.37-4.12,6.62-4.1v-.22a2.27,2.27,0,0,0-2.5-2.55,5.53,5.53,0,0,0-2.87.82l-.45-1.32a6.85,6.85,0,0,1,3.62-1c3.36,0,4.18,2.3,4.18,4.51v4.11a16.18,16.18,0,0,0,.18,2.64Zm-.29-5.62c-2.19,0-4.67.34-4.67,2.48A1.77,1.77,0,0,0,63,40.67a2.72,2.72,0,0,0,2.66-1.84,2,2,0,0,0,.12-.64V36.28Z"/><path class="cls-1" d="M80.41,30.89c0,.8-.09,1.68-.09,3v6.39c0,2.53-.5,4.07-1.57,5a5.86,5.86,0,0,1-4,1.32,7.12,7.12,0,0,1-3.66-.91l.5-1.53a6.18,6.18,0,0,0,3.23.87c2,0,3.55-1.07,3.55-3.85V40h0a3.94,3.94,0,0,1-3.51,1.85c-2.73,0-4.68-2.32-4.68-5.37,0-3.73,2.43-5.85,5-5.85a3.66,3.66,0,0,1,3.43,1.91h0l.09-1.66Zm-2.07,4.35a2.92,2.92,0,0,0-2.91-3c-1.91,0-3.28,1.62-3.28,4.16,0,2.17,1.09,4,3.25,4a2.93,2.93,0,0,0,2.78-2,3.65,3.65,0,0,0,.16-1.07v-2Z"/><path class="cls-1" d="M84.75,36.76a3.53,3.53,0,0,0,3.78,3.82,7.23,7.23,0,0,0,3-.57l.34,1.44a8.87,8.87,0,0,1-3.66.68c-3.39,0-5.42-2.23-5.42-5.55s2-5.94,5.17-5.94c3.59,0,4.55,3.16,4.55,5.19a7.9,7.9,0,0,1-.07.93Zm5.88-1.43c0-1.28-.53-3.26-2.78-3.26-2,0-2.91,1.87-3.07,3.26Z"/><path class="cls-1" d="M13.32,69.2l-.16-1.38h-.07a4.13,4.13,0,0,1-3.37,1.64,3.14,3.14,0,0,1-3.37-3.17c0-2.66,2.37-4.12,6.62-4.09V62a2.27,2.27,0,0,0-2.5-2.55,5.53,5.53,0,0,0-2.87.82l-.45-1.32a6.85,6.85,0,0,1,3.62-1c3.36,0,4.18,2.3,4.18,4.51v4.12a15,15,0,0,0,.19,2.63ZM13,63.58c-2.18,0-4.66.35-4.66,2.48A1.77,1.77,0,0,0,10.24,68a2.74,2.74,0,0,0,2.67-1.85A2.32,2.32,0,0,0,13,65.5Z"/><path class="cls-1" d="M18.78,58.19l2.16,6.19a27.22,27.22,0,0,1,.88,2.82h.07c.25-.91.57-1.82.94-2.82L25,58.19h2.1l-4.33,11H20.82l-4.18-11Z"/><path class="cls-1" d="M35,69.2l-.16-1.38h-.07a4.09,4.09,0,0,1-3.36,1.64A3.14,3.14,0,0,1,28,66.29c0-2.66,2.37-4.12,6.62-4.09V62a2.27,2.27,0,0,0-2.5-2.55,5.5,5.5,0,0,0-2.87.82l-.45-1.32a6.84,6.84,0,0,1,3.61-1c3.37,0,4.19,2.3,4.19,4.51v4.12a16.14,16.14,0,0,0,.18,2.63Zm-.29-5.62c-2.19,0-4.67.35-4.67,2.48A1.78,1.78,0,0,0,31.88,68a2.74,2.74,0,0,0,2.66-1.85,2,2,0,0,0,.12-.63V63.58Z"/><path class="cls-1" d="M42.05,55.1a1.24,1.24,0,0,1-2.48,0,1.21,1.21,0,0,1,1.25-1.25A1.19,1.19,0,0,1,42.05,55.1ZM39.82,69.2v-11h2v11Z"/><path class="cls-1" d="M45.14,53.05h2V69.2h-2Z"/><path class="cls-1" d="M56.61,69.2l-.16-1.38h-.07A4.09,4.09,0,0,1,53,69.46a3.14,3.14,0,0,1-3.37-3.17c0-2.66,2.37-4.12,6.62-4.09V62a2.27,2.27,0,0,0-2.5-2.55,5.48,5.48,0,0,0-2.87.82l-.45-1.32a6.84,6.84,0,0,1,3.61-1c3.37,0,4.19,2.3,4.19,4.51v4.12a16.14,16.14,0,0,0,.18,2.63Zm-.29-5.62c-2.19,0-4.67.35-4.67,2.48A1.78,1.78,0,0,0,53.54,68a2.74,2.74,0,0,0,2.66-1.85,2,2,0,0,0,.12-.63V63.58Z"/><path class="cls-1" d="M61.39,69.2c0-.75.09-1.86.09-2.84V53.05h2V60h0a4.08,4.08,0,0,1,3.75-2c2.73,0,4.66,2.28,4.64,5.62,0,3.94-2.48,5.89-4.94,5.89a3.91,3.91,0,0,1-3.68-2.07h-.07l-.09,1.82Zm2.07-4.41a4.29,4.29,0,0,0,.09.73,3.09,3.09,0,0,0,3,2.34c2.1,0,3.35-1.7,3.35-4.23,0-2.21-1.14-4.09-3.28-4.09A3.2,3.2,0,0,0,63.57,62a4.41,4.41,0,0,0-.11.82v2Z"/><path class="cls-1" d="M74.43,53.05h2V69.2h-2Z"/><path class="cls-1" d="M80.91,64.06a3.53,3.53,0,0,0,3.78,3.83,7.43,7.43,0,0,0,3-.57l.34,1.43a8.93,8.93,0,0,1-3.67.68C81,69.43,79,67.2,79,63.88s2-5.94,5.16-5.94c3.6,0,4.55,3.16,4.55,5.19a8.41,8.41,0,0,1-.06.93Zm5.87-1.43c0-1.27-.52-3.25-2.78-3.25-2,0-2.91,1.86-3.07,3.25Z"/></svg>